<svg width="35" height="32" viewBox="0 0 35 32" fill="none" xmlns="http://www.w3.org/2000/svg">
<path d="M17.5542 0C20.8531 0 23.827 0.701031 26.4757 2.10309C29.1486 3.47766 31.2315 5.38832 32.7245 7.83505C34.2415 10.2543 35 12.9897 35 16.0412C35 19.0653 34.2415 21.7869 32.7245 24.2062C31.2315 26.6254 29.1606 28.5361 26.5119 29.9381C23.8631 31.3127 20.8892 32 17.5903 32C14.4118 32 11.474 31.3127 8.77709 29.9381C6.08015 28.5361 3.93705 26.6254 2.34778 24.2062C0.782594 21.7595 0 19.0378 0 16.0412C0 13.0172 0.782594 10.2818 2.34778 7.83505C3.93705 5.38832 6.06811 3.47766 8.74097 2.10309C11.4379 0.701031 14.3756 0 17.5542 0ZM17.5903 24.2887C18.9388 24.2887 20.227 23.9588 21.4551 23.299C22.7073 22.6392 23.7186 21.6907 24.4892 20.4536C25.2597 19.2165 25.645 17.7457 25.645 16.0412C25.645 14.3368 25.2477 12.866 24.453 11.6289C23.6825 10.3643 22.6711 9.41581 21.419 8.78351C20.1668 8.12371 18.8665 7.79381 17.5181 7.79381C16.1455 7.79381 14.8452 8.12371 13.6171 8.78351C12.3891 9.4433 11.3897 10.4055 10.6192 11.6701C9.87272 12.9072 9.49948 14.3643 9.49948 16.0412C9.49948 17.7457 9.88476 19.2165 10.6553 20.4536C11.4259 21.6907 12.4252 22.6392 13.6533 23.299C14.9054 23.9588 16.2177 24.2887 17.5903 24.2887Z" fill="black"/>
</svg>
